<?xml version="1.0" encoding="utf-8"?>
<!-- Generator: Adobe Illustrator 19.2.1, SVG Export Plug-In . SVG Version: 6.00 Build 0)  -->
<svg version="1.1" id="Layer_1" xmlns="http://www.w3.org/2000/svg" xmlns:xlink="http://www.w3.org/1999/xlink" x="0px" y="0px"
	 viewBox="0 0 221.1 182.1" style="enable-background:new 0 0 221.1 182.1;" xml:space="preserve">
<style type="text/css">
	.st0{fill:#FFFFFF;}
</style>
<g>
	<path class="st0" d="M143.3,13.6c-18.1-18.1-47.5-18.1-65.6,0L0,91.3h0c18.1,18.1,47.5,18.1,65.6,0L143.3,13.6L143.3,13.6z"/>
	<path class="st0" d="M77.7,91.3L77.7,91.3L77.7,91.3c18.1,18.1,47.5,18.1,65.6,0h0l0,0C125.2,73.2,95.8,73.2,77.7,91.3z"/>
	<path class="st0" d="M155.4,91.3L77.7,169h0c18.1,18.1,47.5,18.1,65.6,0l77.7-77.7v0C202.9,73.2,173.6,73.2,155.4,91.3z"/>
</g>
</svg>
